/* XPM */
static char *robot_viewer__[] = {
/* columns rows colors chars-per-pixel */
"32 32 236 2",
"   c #34241B",
".  c #393220",
"X  c #44371E",
"o  c #493719",
"O  c #704807",
"+  c #5F4F2B",
"@  c #484732",
"#  c #5C4E3F",
"$  c #5C5037",
"%  c #6B5322",
"&  c #68532B",
"*  c #785C22",
"=  c #785C26",
"-  c #735C2D",
";  c #665B37",
":  c #63543C",
">  c #6F5E3E",
",  c #7A622B",
"<  c #6E6239",
"1  c #796434",
"2  c #70613B",
"3  c #7A653C",
"4  c #7B693F",
"5  c #736645",
"6  c #796B42",
"7  c #71674B",
"8  c #74694B",
"9  c #7A6D49",
"0  c #7F7149",
"q  c #797973",
"w  c #866020",
"e  c #896328",
"r  c #8E6B2B",
"t  c #946F2F",
"y  c #92712E",
"u  c #99702E",
"i  c #99782F",
"p  c #856632",
"a  c #886632",
"s  c #856837",
"d  c #8C6C33",
"f  c #886738",
"g  c #826938",
"h  c #8B6D3C",
"j  c #83713F",
"k  c #8A703F",
"l  c #957337",
"z  c #9E7631",
"x  c #987937",
"c  c #9D7438",
"v  c #967E3F",
"b  c #A27936",
"n  c #A27B3B",
"m  c #826E44",
"M  c #8B7343",
"N  c #83744C",
"B  c #8F7649",
"V  c #85784E",
"C  c #8E7A4C",
"Z  c #967644",
"A  c #967841",
"S  c #9C7941",
"D  c #957C4C",
"F  c #997C4B",
"G  c #8B7756",
"H  c #847759",
"J  c #86795C",
"K  c #977F52",
"L  c #A17D42",
"P  c #827866",
"I  c #AE8237",
"U  c #978053",
"Y  c #9E8253",
"T  c #94835B",
"R  c #998459",
"E  c #AA8544",
"W  c #A98B45",
"Q  c #A2854C",
"!  c #AB864A",
"~  c #A0884B",
"^  c #AB894C",
"/  c #B18444",
"(  c #B48B47",
")  c #B4874F",
"_  c #B18B4B",
"`  c #B59549",
"'  c #B9964A",
"]  c #A48651",
"[  c #A48A53",
"{  c #AD8C53",
"}  c #A6875B",
"|  c #A4895A",
" . c #AB8C5A",
".. c #B38E54",
"X. c #B58E58",
"o. c #AA925E",
"O. c #B49254",
"+. c #BC9454",
"@. c #BB9A56",
"#. c #B5935B",
"$. c #BA975A",
"%. c #B09B5A",
"&. c #BC9B5C",
"*. c #BDA35E",
"=. c #988760",
"-. c #9B8B60",
";. c #968868",
":. c #9C8C70",
">. c #9B9179",
",. c #A38F60",
"<. c #A98F62",
"1. c #A18C6F",
"2. c #A39064",
"3. c #AC9366",
"4. c #A0916A",
"5. c #AC956B",
"6. c #AC9B6C",
"7. c #B49561",
"8. c #B49A64",
"9. c #BA9B66",
"0. c #B49B6C",
"q. c #BC9E6A",
"w. c #AC9C76",
"e. c #B09670",
"r. c #B39E74",
"t. c #BCA264",
"y. c #B5A26E",
"u. c #BCA369",
"i. c #BDA86F",
"p. c #B3A177",
"a. c #BCA175",
"s. c #BDA873",
"d. c #B5A37D",
"f. c #C1924A",
"g. c #C99748",
"h. c #C49854",
"j. c #C59E57",
"k. c #CCAA5C",
"l. c #C09E65",
"z. c #CCA562",
"x. c #C4AB64",
"c. c #C4A46E",
"v. c #CDA96B",
"b. c #D1AA6C",
"n. c #C9B165",
"m. c #D3B668",
"M. c #C3A474",
"N. c #CAA577",
"B. c #C4A976",
"V. c #CAAD77",
"C. c #C1AA7D",
"Z. c #D0AE73",
"A. c #C2B177",
"S. c #CCB27C",
"D. c #D3B777",
"F. c #D0B47C",
"G. c #D9C06B",
"H. c #DEC374",
"J. c #D5C178",
"K. c #E4D17C",
"L. c #EBD97B",
"P. c #AEA080",
"I. c #B9A783",
"U. c #B3A986",
"Y. c #BDAA84",
"T. c #BCAC8B",
"R. c #BEAF98",
"E. c #B9B193",
"W. c #BFBAA5",
"Q. c #C6AD83",
"!. c #C3AE89",
"~. c #C0B185",
"^. c #CBB383",
"/. c #C9B48C",
"(. c #D1B684",
"). c #D0BA87",
"_. c #D1B78C",
"`. c #C2B397",
"'. c #CCB695",
"]. c #C6B89A",
"[. c #D3BE92",
"{. c #DFC98C",
"}. c #CEC59F",
"|. c #D3C294",
" X c #D6C39A",
".X c #D9C39D",
"XX c #E2CA8D",
"oX c #E9D08A",
"OX c #E2CF9C",
"+X c #E8D69D",
"@X c #F3E187",
"#X c #CDC1A4",
"$X c #D5C6A3",
"%X c #DECDA6",
"&X c #D4C6AA",
"*X c #D6CCAD",
"=X c #DCCDA9",
"-X c #DFD1AB",
";X c #D3C9B1",
":X c #DBCEB3",
">X c #DFD4B5",
",X c #DBD3BA",
"<X c #E1CEAC",
"1X c #E5D2A7",
"2X c #E3D6BD",
"3X c #E5D8B9",
"4X c #E7E0A8",
"5X c #F2E7A7",
"6X c #D7D6C7",
"7X c #DFD8C2",
"8X c #DEDBD5",
"9X c #E6DDC6",
"0X c #E9DEC2",
"qX c #E3DDCD",
"wX c #E4DFD1",
"eX c #E3E0C5",
"rX c #E6E3C8",
"tX c #EAE3CA",
"yX c #E9E8CB",
"uX c #E6E2D1",
"iX c #E8E1D0",
"pX c #EBEDD5",
"aX c #EBEEDA",
"sX c #F0EADB",
"dX c #EDF1DA",
"fX c #F1F4DD",
"gX c #EDE9E3",
"hX c #F2EFE3",
"jX c #F3F3E4",
"kX c #F5F9E2",
"lX c #F9FDE6",
"zX c #F6F4EC",
"xX c #FCFEEC",
"cX c #F6F4F0",
"vX c #FDFEF4",
"bX c #FEFEFC",
/* pixels */
"xXvXvXxXxXxXxXxXxXlXlXxXW.Y V.B.|.u.7.rXvXbXvXbXbXbXbXbXbXbXbXbX",
"xXvXxXvXvXxXxXvXxXvXvXvX>.7.u.m }.[ d 9XvXbXbXvXvXbXbXbXbXbXbXbX",
"vXvXvXxXvXxXxXvXxXxXxXvX>.Y u.R s.S.@.2XbXcXbXbXbXbXbXbXbXbXbXbX",
"vXvXvXvXvXvXvXxXxXvXxXvXuXU c.[ ..a 3 wXbXbXbXbXbXbXbXbXbXbXbXbX",
"vXvXvXbXvXvXvXvXvXxXvXvXbX5 c j.^ t F vXbXbXbXbXbXbXbXbXbXbXbXbX",
"bXvXbXvXvXvXvXxXiXT.e.C.0.> o b v.l e.9XbXbXbXbXbXbXbXbXbXbXbXbX",
"vXbXbXvXvXvXjX'.8.} O.&.@.a M k O...$.c X.!.`.6XbXbXbXbXbXbXbXbX",
"bXvXbXvXbXvXqXF | [ 7.M.X.l Q S c o.' f.g.M K K :.cXbXbXbXbXbXbX",
"vXvXbXbXvXbXr.8.R $.#.S.S.M.$.[ ~ M.{. .9.J >.R.> P bXbXbXbXbXbX",
"bXbXbXvXvX].7./.K I.#.F.S.~.V.9.5.4X5X{ 9.: @ ;.h.! cXbXbXbXbXbX",
"bXvXvXvX$X..Z.#.9XzX..$.V.s.c.C 6.5XF._ f.3 5 +.h.b M.bXbXbXbXbX",
"bXbXcX:X#.z.j.B.bXvX! 9.Z.7. .Z w.^.@.w O ,XcXn ( z.L sXbXbXbXbX",
"vXvXjXB.b...Z <XvXsX^ } } F M M 2.8.L l e hXbXwXE X.X.N.gXbXbXbX",
"vXvXbX2X+.z./ /.bXhXX.} 3 3 C g h Z s a p cXbXbX'.) N.Q.<XvXbXbX",
"vXvXvXvXr.j.h.<.vXgX7.<.3 2 6 M N.9.f s `.bXbXgXJ =.r.1X[.bXbXbX",
"vXxXxXvXsX! z./ sX XX   T 5.3.e.1.G m , ,XbXwXP.!.U.$X:XbXbXbXbX",
"vXxXxXxXbX`.u.l.d.-XE & # : @   : 2.u.x y.=X5 q t.4 $ jXbXbXbXbX",
"xXxXxXxXxXaX4.i.. >X+ i I U R s.J.n.[ , | zXbXbX|.v ~ A.bXbXbXbX",
"lXxXlXxXxXxX,XH C %XW * @.` k.D.n.K.@Xr o.vXbXbXi.7X%.|.bXbXbXbX",
"lXlXxXlXxXxXW.T Y.d.A y W x.*.@.L.m.@.~ K 6XbXbXjXbX*XjXbXbXbXbX",
"xXlXxXlXlXlXxXE.j %.p.N Q *.t.K.G.[ 3.9 M :XbXbXbXbXbXbXbXbXbXbX",
"lXlXlXlXlXlXlXxXeXY.U.7 6 Z.H.` @.V V ; 1 >XbXbXbXbXbXbXbXbXbXbX",
"lXlXlXlXlXlXlXkXlX,XY.8 ;.B % - s.r.0 < 1 &XbXbXbXbXbXbXbXbXbXbX",
"fXkXkXfXkXkXkXkXlX,X~.R ).M * w.8.d.9 6 M &XbXbXbXbXbXbXbXbXbXbX",
"fXfXfXfXfXfXfXfXfX,XY.R p.F z ;X_ Q.-.m - &XbXbXbXbXbXbXbXbXbXbX",
"fXfXfXfXfXfXfXfXfXpXr.5.5.{ I aXE N.r.^.= 3XvXvXbXbXbXbXbXbXbXbX",
"fXfXdXdXfXfXfXfXfXkX!.B.XXv.b vXc.V._.+Xd 0XbXbXbXbXvXbXbXbXbXbX",
"fXpXdXpXdXdXfXdXdXjX&XQ.oXv.u cXQ.F.[.+Xl.tXvXbXvXbXbXvXvXbXbXbX",
"aXdXaXpXpXdXdXdXfXaXY.r.S.8.n :X'.(.!.OX3.#XzXvXbXbXbXbXbXbXvXbX",
"aXaXaXdXdXdXdXdXdXrXD M M q.#..XqX;.5 2.U.5.8XvXvXvXvXvXvXbXbXvX",
"pXpXdXpXdXdXdXdXdXyXc.a.] M.B.3XaXT ,.0.^.|.9XvXvXvXvXbXvXbXvXbX",
"aXaXaXdXdXdXdXfXfXrXM.j.#...|.cXvXT.o.^.0.$XuXbXvXbXbXvXbXvXbXvX"
};
